<?xml version="1.0" standalone="no"?>
<!DOCTYPE svg PUBLIC "-//W3C//DTD SVG 20010904//EN"
 "http://www.w3.org/TR/2001/REC-SVG-20010904/DTD/svg10.dtd">
<svg version="1.0" xmlns="http://www.w3.org/2000/svg"
 width="720.000000pt" height="720.000000pt" viewBox="0 0 720.000000 720.000000"
 preserveAspectRatio="xMidYMid meet">
<metadata>
Created by potrace 1.11, written by Peter Selinger 2001-2013
</metadata>
<g transform="translate(0.000000,720.000000) scale(0.100000,-0.100000)"
fill="#000000" stroke="none">
<path d="M2540 6345 c0 -13 -46 -15 -354 -15 -263 0 -355 3 -358 12 -5 14 -28
2 -28 -15 0 -9 69 -11 282 -9 269 3 323 0 233 -12 -143 -20 -440 -144 -523
-219 -10 -9 -22 -17 -25 -17 -10 0 -50 -35 -145 -125 -74 -70 -138 -147 -208
-250 -79 -116 -168 -348 -191 -495 -3 -19 -7 -37 -9 -39 -2 -2 -4 117 -4 265
0 174 4 274 10 280 8 8 6 15 -5 24 -8 7 -15 9 -16 4 0 -5 0 -174 1 -376 1
-300 -2 -368 -12 -368 -20 0 -22 -56 -3 -64 13 -5 15 -52 13 -376 -2 -203 0
-370 3 -370 14 0 30 28 20 34 -6 4 -10 108 -9 284 1 152 3 264 5 247 2 -16 16
-75 29 -130 14 -55 26 -106 27 -112 0 -7 3 -13 7 -13 4 0 12 -17 18 -38 28
-93 185 -343 261 -416 17 -16 28 -33 25 -38 -3 -5 -2 -7 3 -6 5 2 29 -16 53
-39 60 -55 160 -130 239 -177 66 -41 228 -116 248 -116 6 0 24 -5 40 -12 34
-14 33 -13 115 -29 54 -11 63 -15 50 -25 -13 -9 -10 -11 15 -10 18 1 28 5 25
11 -3 6 1 5 9 -1 8 -6 45 -10 83 -9 56 1 70 -2 73 -15 3 -12 13 -15 39 -12 18
2 31 8 28 13 -6 11 -9 10 82 14 39 1 77 6 84 10 9 5 11 4 6 -3 -4 -7 -2 -12 3
-12 6 0 11 5 11 11 0 6 5 7 13 2 6 -4 122 -8 257 -9 135 -1 254 -4 265 -5 14
-3 20 2 21 18 1 19 -2 20 -25 11 -26 -10 -511 -18 -511 -8 0 3 35 13 78 23
106 26 182 53 282 101 47 22 90 40 97 39 7 0 11 3 10 7 -1 4 34 32 78 61 44
29 121 94 170 144 85 84 165 172 165 180 0 2 14 25 31 51 81 119 150 283 193
454 l23 95 -2 -265 c0 -146 -5 -272 -9 -281 -5 -11 -2 -18 8 -22 8 -3 17 -3
18 1 2 4 1 147 -2 317 -6 372 -4 425 15 425 18 0 15 53 -4 60 -10 5 -13 37
-12 150 1 79 -1 141 -6 137 -4 -4 -7 -36 -6 -70 1 -34 -1 -53 -3 -42 -28 126
-48 205 -59 230 -7 17 -16 41 -20 55 -14 50 -78 176 -130 255 -113 171 -276
331 -427 419 -27 15 -48 32 -48 37 0 5 -4 8 -8 7 -5 -2 -49 15 -98 38 -81 37
-133 57 -181 70 -10 2 -54 13 -98 23 l-80 20 280 -1 c233 -1 280 2 280 13 0 8
-6 12 -15 9 -8 -3 -172 -6 -364 -8 -305 -2 -351 -1 -358 13 -12 20 -68 20 -68
0z"/>
<path d="M3930 5725 c-8 -10 -9 -19 -2 -27 5 -7 9 -57 8 -110 -1 -54 2 -98 6
-98 4 0 8 46 8 103 0 58 5 108 10 113 8 8 7 14 -3 23 -11 9 -17 8 -27 -4z"/>
<path d="M3939 5468 c-5 -64 -2 -178 4 -178 4 0 7 43 7 95 0 52 -2 95 -5 95
-3 0 -5 -6 -6 -12z"/>
<path d="M5451 3952 c-9 -15 15 -15 -534 -10 -244 2 -307 0 -307 -10 0 -16 30
-28 39 -15 4 7 109 11 306 11 165 0 291 -4 280 -8 -11 -4 -56 -16 -100 -25
-291 -63 -530 -196 -750 -419 -225 -227 -380 -528 -425 -821 -4 -30 -8 77 -9
261 -1 203 3 314 9 320 8 8 6 15 -5 24 -14 12 -18 11 -25 0 -5 -8 -5 -21 0
-29 4 -9 7 -193 7 -408 -1 -316 -3 -393 -14 -393 -8 0 -13 -13 -13 -35 0 -24
5 -35 14 -35 11 0 14 -14 12 -65 -1 -36 2 -65 7 -65 5 0 3 -7 -4 -17 -11 -13
-11 -17 -1 -20 6 -3 9 -9 6 -15 -9 -15 -11 -208 -2 -208 4 0 8 46 9 103 l1
102 14 -79 c51 -280 203 -567 417 -784 79 -81 255 -222 277 -222 5 0 10 -4 10
-10 0 -5 6 -10 14 -10 8 0 16 -3 18 -7 2 -5 45 -28 96 -53 50 -24 92 -48 92
-53 0 -4 4 -6 9 -3 4 3 32 -4 62 -15 56 -20 222 -64 274 -72 17 -3 -117 -4
-298 -3 -239 1 -327 -2 -327 -10 0 -15 28 -26 35 -14 4 6 162 10 406 10 350 0
399 -2 399 -15 0 -11 9 -15 30 -13 17 1 30 8 30 15 0 11 76 13 403 11 221 -2
409 -5 417 -8 10 -3 15 2 15 15 0 13 -5 18 -15 15 -8 -3 -152 -6 -320 -7 -212
-1 -291 2 -260 8 79 17 193 48 249 69 30 10 57 17 62 15 4 -3 9 -2 11 2 1 5
30 22 63 38 33 17 81 42 107 57 27 15 48 25 48 23 0 -3 8 2 18 11 9 9 55 43
102 77 221 161 417 421 516 683 25 67 70 235 76 286 8 57 14 34 13 -42 -1 -44
1 -80 5 -80 9 0 6 163 -4 179 -6 10 -6 12 2 7 7 -4 12 -2 12 3 0 6 -6 11 -12
11 -9 0 -9 3 -3 8 6 4 10 37 10 75 0 48 3 67 12 67 8 0 13 13 13 36 0 19 -4
33 -9 30 -13 -9 -17 12 -16 82 0 34 -3 62 -7 62 -4 0 -8 5 -8 11 0 5 4 8 8 5
9 -5 10 239 1 248 -3 3 -5 -44 -4 -104 1 -110 -6 -126 -20 -40 -8 52 -39 167
-61 223 -8 21 -12 43 -9 48 4 5 2 9 -3 9 -5 0 -21 28 -37 63 -66 147 -173 305
-286 425 -30 31 -53 60 -51 65 1 5 -1 6 -5 4 -5 -3 -31 15 -58 40 -64 57 -221
162 -305 204 -36 17 -68 37 -72 43 -4 6 -8 8 -8 4 0 -4 -35 5 -77 21 -43 16
-124 39 -180 52 -57 13 -103 27 -103 30 0 11 564 8 577 -3 15 -12 33 -2 33 19
0 11 -6 14 -23 9 -17 -4 -666 -9 -799 -6 -10 0 -18 6 -18 14 0 18 -49 16 -59
-2z m-164 -28 c-3 -3 -12 -4 -19 -1 -8 3 -5 6 6 6 11 1 17 -2 13 -5z m431 -1
c-10 -2 -26 -2 -35 0 -10 3 -2 5 17 5 19 0 27 -2 18 -5z m-204 -697 c-5 -12
44 -15 63 -3 6 4 17 5 25 2 18 -7 42 -45 28 -45 -5 0 -10 -16 -10 -35 0 -22 5
-35 13 -35 9 0 13 -23 13 -80 1 -56 -2 -78 -10 -73 -8 5 -8 3 0 -8 17 -21 14
-355 -4 -351 -8 1 -12 -10 -12 -34 0 -34 1 -35 33 -32 19 2 31 8 29 16 -1 9
38 12 173 12 149 0 175 -2 175 -15 0 -11 11 -15 36 -15 21 0 33 4 29 10 -12
19 14 10 35 -12 21 -23 27 -44 10 -33 -6 4 -10 -8 -10 -29 0 -25 4 -36 15 -36
10 0 15 -11 15 -35 0 -19 -5 -35 -10 -35 -13 0 -29 -41 -23 -57 3 -7 9 -10 14
-7 18 11 8 -16 -13 -36 -23 -21 -38 -26 -38 -11 0 5 -13 9 -30 9 -18 -1 -30
-6 -30 -15 0 -11 -54 -13 -295 -13 -239 0 -293 2 -289 13 5 15 -42 18 -62 5
-7 -5 -22 0 -34 10 -18 14 -21 23 -14 43 10 29 6 52 -10 61 -8 5 -11 104 -10
375 2 414 1 386 13 379 5 -3 11 8 13 24 3 16 0 31 -5 33 -14 4 1 44 19 51 9 3
21 3 27 -1 21 -13 68 -10 63 3 -6 16 9 21 45 16 15 -2 26 -9 23 -16z"/>
<path d="M1804 3599 c-11 -18 11 -32 32 -21 11 5 36 8 57 7 20 -2 37 1 37 5 0
4 -15 7 -32 7 -18 0 -45 2 -60 6 -16 4 -30 3 -34 -4z"/>
<path d="M2009 3605 c-3 -2 -19 -5 -37 -7 -17 -1 -29 -4 -26 -7 7 -7 184 -8
184 0 0 4 -21 6 -47 5 -27 -1 -53 2 -59 6 -6 4 -13 6 -15 3z"/>
<path d="M2146 3591 c8 -9 64 -9 64 -1 0 4 -16 7 -35 7 -19 -1 -32 -4 -29 -6z"/>
<path d="M2226 3590 c8 -8 84 -8 84 0 0 4 -20 7 -44 6 -25 0 -42 -3 -40 -6z"/>
<path d="M1585 3270 c7 -12 7 -12 -71 -15 -34 -1 -69 -5 -78 -8 -10 -4 -15 -3
-11 3 3 6 1 10 -4 10 -6 0 -11 -5 -11 -10 0 -7 -7 -7 -22 1 -17 9 -20 9 -16
-3 5 -11 -15 -18 -81 -32 -171 -37 -382 -136 -539 -253 -87 -65 -235 -210
-276 -270 -16 -24 -32 -43 -37 -43 -4 0 -11 -9 -14 -20 -3 -11 -12 -26 -19
-32 -32 -33 -165 -332 -181 -408 -2 -8 -4 -16 -5 -17 -3 -4 -21 -97 -24 -125
-1 -3 -4 -9 -7 -12 -3 -3 -5 30 -4 74 1 44 -1 80 -5 80 -10 0 -6 -163 4 -179
6 -10 6 -12 -2 -7 -7 4 -12 2 -12 -3 0 -6 6 -11 13 -11 7 0 8 -3 2 -8 -6 -4
-10 -37 -10 -73 0 -50 -3 -65 -12 -62 -9 4 -13 -6 -13 -31 0 -25 4 -36 15 -36
13 0 15 -28 15 -190 0 -155 -3 -190 -14 -190 -8 0 -16 -13 -18 -30 -3 -20 0
-30 9 -30 13 0 16 -13 16 -62 -1 -16 2 -26 6 -23 4 2 8 -2 8 -10 0 -8 -3 -15
-7 -15 -11 0 -9 -39 2 -46 7 -5 9 -1 5 9 -3 9 -2 19 3 22 4 3 14 -12 21 -32
40 -123 176 -258 309 -307 l45 -17 -87 5 c-67 3 -88 1 -88 -9 0 -16 27 -27 35
-15 4 6 58 10 121 10 94 0 114 -3 114 -15 0 -11 9 -14 33 -12 18 2 31 8 29 15
-1 7 4 12 10 12 17 1 3529 1 3591 1 35 -1 47 -5 47 -16 0 -22 56 -20 62 3 8
35 -2 52 -31 50 -79 -6 -372 289 -510 515 -23 38 -38 73 -35 79 4 6 3 8 -3 5
-13 -8 -65 91 -119 228 -48 125 -85 256 -100 355 -2 14 -8 57 -13 95 -13 91
-14 195 -1 195 6 0 10 16 10 36 0 24 -4 33 -12 28 -11 -7 -7 129 8 246 9 71
61 271 93 357 52 141 64 163 87 163 16 0 21 7 22 30 0 17 -4 31 -9 31 -25 3
-46 1 -62 -6 -10 -4 -23 -3 -29 3 -6 6 -26 8 -44 5 -20 -3 -40 -1 -49 7 -11 9
-19 10 -28 1 -10 -8 -19 -7 -33 4 -24 18 -71 19 -76 3 -6 -18 -106 -18 -112
-1 -3 7 -19 13 -35 13 -23 0 -30 -5 -33 -21 -2 -17 -22 -29 -93 -56 -99 -39
-285 -89 -355 -97 -215 -24 -260 -26 -260 -10 0 9 -12 14 -35 14 -22 0 -35 -5
-35 -13 0 -9 -18 -12 -62 -10 -58 1 -162 11 -198 18 -8 1 -33 6 -55 9 -21 4
-42 10 -45 14 -3 4 -18 8 -34 9 -39 3 -187 49 -258 80 -33 15 -58 33 -61 44
-4 14 -14 19 -37 19 -18 0 -29 -4 -25 -10 7 -11 5 -11 -67 -14 -34 -2 -48 1
-48 11 0 8 -13 13 -36 13 -21 0 -33 -4 -29 -10z"/>
<path d="M809 3268 c-7 -31 -5 -38 11 -38 10 0 21 4 25 10 3 5 13 7 23 4 14
-5 14 -4 2 4 -17 11 -60 25 -61 20z"/>
<path d="M966 3262 c-3 -5 -21 -8 -41 -7 -19 2 -35 0 -35 -4 0 -4 20 -8 43 -8
31 -1 44 3 44 13 0 16 -4 18 -11 6z"/>
<path d="M7003 3253 c-4 -9 -1 -19 5 -21 7 -2 10 -8 6 -13 -3 -5 -1 -9 4 -9
13 0 23 27 16 45 -8 20 -23 19 -31 -2z"/>
<path d="M990 3249 c0 -4 30 -7 66 -7 36 0 63 3 60 5 -8 8 -126 9 -126 2z"/>
<path d="M1130 3250 c0 -3 30 -7 67 -8 36 -1 64 1 60 4 -8 8 -127 12 -127 4z"/>
<path d="M1270 3251 c0 -4 21 -9 47 -10 26 -1 45 1 42 3 -8 8 -89 14 -89 7z"/>
<path d="M7013 3145 c1 -30 3 -55 7 -55 8 0 7 96 -1 104 -3 4 -6 -18 -6 -49z"/>
<path d="M7013 3025 c1 -30 3 -55 7 -55 8 0 7 96 -1 104 -3 4 -6 -18 -6 -49z"/>
<path d="M7014 2905 c0 -30 3 -55 6 -55 7 0 7 96 -1 104 -3 3 -5 -19 -5 -49z"/>
<path d="M160 2605 c0 -8 5 -15 10 -15 6 0 8 -11 6 -25 -3 -14 0 -25 5 -25 5
0 9 9 9 21 0 11 5 29 10 40 9 16 7 19 -15 19 -16 0 -25 -6 -25 -15z"/>
<path d="M174 2495 c0 -19 3 -35 7 -35 3 0 6 16 7 35 1 19 -2 35 -6 35 -4 0
-8 -16 -8 -35z"/>
<path d="M173 2404 c0 -25 2 -43 5 -39 9 9 13 85 5 85 -5 0 -9 -21 -10 -46z"/>
<path d="M174 2290 c0 -33 3 -60 7 -60 3 0 6 27 5 60 0 33 -3 60 -6 60 -3 0
-6 -27 -6 -60z"/>
<path d="M175 2210 c3 -5 8 -10 11 -10 2 0 4 5 4 10 0 6 -5 10 -11 10 -5 0 -7
-4 -4 -10z"/>
<path d="M7014 1945 c0 -30 3 -55 6 -55 8 0 7 96 -1 104 -3 3 -5 -19 -5 -49z"/>
<path d="M3942 1950 c-2 -8 -4 -98 -4 -200 -1 -113 -5 -190 -11 -198 -8 -10
-7 -16 3 -22 19 -12 44 8 30 25 -5 6 -11 99 -13 211 -1 109 -4 192 -5 184z"/>
<path d="M7013 1825 c1 -30 3 -55 7 -55 8 0 7 96 -1 104 -3 4 -6 -18 -6 -49z"/>
<path d="M7013 1735 c0 -14 2 -25 6 -25 10 0 11 39 2 45 -5 2 -8 -7 -8 -20z"/>
<path d="M7013 1675 c0 -14 2 -25 6 -25 10 0 11 39 2 45 -5 2 -8 -7 -8 -20z"/>
<path d="M7013 1628 c3 -9 0 -21 -6 -27 -8 -8 -7 -11 4 -11 17 0 23 37 7 46
-7 5 -9 2 -5 -8z"/>
<path d="M7012 1567 c-13 -15 -7 -47 8 -47 15 0 20 18 12 40 -7 19 -10 20 -20
7z"/>
<path d="M173 1143 c0 -16 -4 -36 -8 -47 -5 -12 -3 -21 6 -27 20 -12 31 4 21
32 -5 13 -8 34 -6 47 2 12 0 22 -5 22 -4 0 -8 -12 -8 -27z"/>
</g>
</svg>
